<svg width="40" height="40" viewBox="0 0 40 40" fill="none" xmlns="http://www.w3.org/2000/svg">
<path d="M20 40C31.0457 40 40 31.0457 40 20C40 8.9543 31.0457 0 20 0C8.9543 0 0 8.9543 0 20C0 31.0457 8.9543 40 20 40Z" fill="url(#paint0_linear_63_1042)"/>
<path d="M20 40C31.0457 40 40 31.0457 40 20C40 8.9543 31.0457 0 20 0C8.9543 0 0 8.9543 0 20C0 31.0457 8.9543 40 20 40Z" fill="url(#paint1_linear_63_1042)"/>
<path d="M20 0.0996094C16.3 0.0996094 12.8 1.09961 9.9 2.89961C9.6 3.09961 9.3 3.39961 9.1 3.49961C2.3 9.49961 3.2 20.3996 10.7 27.7996C18.2 35.1996 29.7 36.2996 36.4 30.2996C37.1 29.6996 37.9 28.7996 38.3 28.0996C39.3 25.5996 39.9 22.9996 39.9 20.1996C40 8.99961 31 0.0996094 20 0.0996094Z" fill="url(#paint2_radial_63_1042)"/>
<path d="M38.2 19.4C39.1 18.1 39.4 16.5 39.2 14.8C37.7 9.5 34.2 5.1 29.6 2.4C29.5 2.3 29.3 2.3 29.2 2.1C26.5 0.7 23.4 0 20 0C17.2 0 14.6 0.6 12.2 1.6C11.6 2.2 10.9 2.8 10.4 3.5C7.4 8.2 11 15.7 18.7 20C26.2 24.6 35 24.1 38.2 19.4Z" fill="url(#paint3_radial_63_1042)"/>
<defs>
<linearGradient id="paint0_linear_63_1042" x1="20" y1="40.3984" x2="20" y2="3.2441" gradientUnits="userSpaceOnUse">
<stop stop-color="#4581E9"/>
<stop offset="0.4792" stop-color="#80ACF0"/>
<stop offset="1" stop-color="white"/>
</linearGradient>
<linearGradient id="paint1_linear_63_1042" x1="46.8325" y1="40.6553" x2="12.6309" y2="14.3274" gradientUnits="userSpaceOnUse">
<stop stop-color="#4581E9"/>
<stop offset="1" stop-color="#4581E9" stop-opacity="0"/>
</linearGradient>
<radialGradient id="paint2_radial_63_1042" cx="0" cy="0" r="1" gradientTransform="matrix(-39.6171 -28.7897 40.7777 -56.1152 42.7974 31.0455)" gradientUnits="userSpaceOnUse">
<stop offset="0.0969745" stop-color="#4581E9"/>
<stop offset="0.4599" stop-color="#80ACF0"/>
<stop offset="0.7942" stop-color="#F0F6FD"/>
</radialGradient>
<radialGradient id="paint3_radial_63_1042" cx="0" cy="0" r="1" gradientTransform="matrix(-43.4289 2.95257 -3.52063 -51.7821 61.7456 6.07354)" gradientUnits="userSpaceOnUse">
<stop stop-color="#4581E9"/>
<stop offset="0.5368" stop-color="#87B1F0"/>
<stop offset="0.8057" stop-color="#CCE0FD"/>
<stop offset="1" stop-color="#F0F6FD"/>
</radialGradient>
</defs>
</svg>
